{
  "accessors": [
    {
      "bufferView": 2,
      "componentType": 5126,
      "count": 8599,
      "max": [
        0.8942593932151794,
        1.5077379941940308,
        0.7113463878631592
      ],
      "min": [
        -0.8942593932151794,
        -2.144014596939087,
        -0.9911792874336243
      ],
      "type": "VEC3"
    },
    {
      "bufferView": 2,
      "byteOffset": 103188,
      "componentType": 5126,
      "count": 8599,
      "max": [
        1.0,
        1.0,
        1.0
      ],
      "min": [
        -1.0,
        -1.0,
        -1.0
      ],
      "type": "VEC3"
    },
    {
      "bufferView": 1,
      "componentType": 5126,
      "count": 8599,
      "max": [
        0.8750002384185791,
        1.000000238418579
      ],
      "min": [
        0.1250000149011612,
        0.0
      ],
      "type": "VEC2"
    },
    {
      "bufferView": 0,
      "componentType": 5125,
      "count": 34560,
      "type": "SCALAR"
    },
    {
      "bufferView": 2,
      "byteOffset": 206376,
      "componentType": 5126,
      "count": 895,
      "max": [
        0.5613711476325989,
        1.013048529624939,
        0.9677238464355469
      ],
      "min": [
        -0.5613712072372437,
        0.32939836382865906,
        0.6765130758285522
      ],
      "type": "VEC3"
    },
    {
      "bufferView": 2,
      "byteOffset": 217116,
      "componentType": 5126,
      "count": 895,
      "max": [
        0.9994997978210449,
        0.9997352361679077,
        0.9998657703399658
      ],
      "min": [
        -0.9994997978210449,
        -0.9992454051971436,
        0.019165977835655212
      ],
      "type": "VEC3"
    },
    {
      "bufferView": 1,
      "byteOffset": 68792,
      "componentType": 5126,
      "count": 895,
      "max": [
        0.5936748385429382,
        0.9824298620223999
      ],
      "min": [
        0.5366133451461792,
        0.7704846858978271
      ],
      "type": "VEC2"
    },
    {
      "bufferView": 0,
      "byteOffset": 138240,
      "componentType": 5125,
      "count": 3456,
      "type": "SCALAR"
    },
    {
      "bufferView": 2,
      "byteOffset": 227856,
      "componentType": 5126,
      "count": 1386,
      "max": [
        0.6565694212913513,
        1.1184077262878418,
        0.8552471399307251
      ],
      "min": [
        -0.6565694212913513,
        0.2214018851518631,
        0.4641864001750946
      ],
      "type": "VEC3"
    },
    {
      "bufferView": 2,
      "byteOffset": 244488,
      "componentType": 5126,
      "count": 1386,
      "max": [
        0.9988288283348083,
        0.9990671873092651,
        0.9884576201438904
      ],
      "min": [
        -0.9988288283348083,
        -0.9989517331123352,
        0.033144060522317886
      ],
      "type": "VEC3"
    },
    {
      "bufferView": 1,
      "byteOffset": 75952,
      "componentType": 5126,
      "count": 1386,
      "max": [
        0.6075304746627808,
        1.000000238418579
      ],
      "min": [
        0.5290528535842896,
        0.0
      ],
      "type": "VEC2"
    },
    {
      "bufferView": 0,
      "byteOffset": 152064,
      "componentType": 5125,
      "count": 4992,
      "type": "SCALAR"
    }
  ],
  "asset": {
    "extras": {
      "author": "PatelDev (https://sketchfab.com/PatelDev)",
      "license": "CC-BY-4.0 (http://creativecommons.org/licenses/by/4.0/)",
      "source": "https://sketchfab.com/3d-models/among-us-character-f653b8ae37df4372abb2614bb27ee976",
      "title": "Among Us Character"
    },
    "generator": "Sketchfab-12.68.0",
    "version": "2.0"
  },
  "bufferViews": [
    {
      "buffer": 0,
      "byteLength": 172032,
      "name": "floatBufferViews",
      "target": 34963
    },
    {
      "buffer": 0,
      "byteLength": 87040,
      "byteOffset": 172032,
      "byteStride": 8,
      "name": "floatBufferViews",
      "target": 34962
    },
    {
      "buffer": 0,
      "byteLength": 261120,
      "byteOffset": 259072,
      "byteStride": 12,
      "name": "floatBufferViews",
      "target": 34962
    }
  ],
  "buffers": [
    {
      "byteLength": 520192,
      "uri": "among.bin"
    }
  ],
  "materials": [
    {
      "doubleSided": true,
      "name": "Material.001",
      "pbrMetallicRoughness": {
        "baseColorFactor": [
          0.686578,
          0.342397,
          0.0,
          1.0
        ],
        "metallicFactor": 0.0,
        "roughnessFactor": 0.262
      }
    },
    {
      "doubleSided": true,
      "name": "Material.002",
      "pbrMetallicRoughness": {
        "baseColorFactor": [
          0.0110346,
          0.208496,
          0.358432,
          1.0
        ],
        "metallicFactor": 0.0,
        "roughnessFactor": 0.31
      }
    },
    {
      "doubleSided": true,
      "name": "Material.003",
      "pbrMetallicRoughness": {
        "baseColorFactor": [
          0.0,
          0.0,
          0.0,
          1.0
        ],
        "metallicFactor": 0.0,
        "roughnessFactor": 0.5
      }
    }
  ],
  "meshes": [
    {
      "name": "Object_0",
      "primitives": [
        {
          "attributes": {
            "NORMAL": 1,
            "POSITION": 0,
            "TEXCOORD_0": 2
          },
          "indices": 3,
          "material": 0,
          "mode": 4
        }
      ]
    },
    {
      "name": "Object_1",
      "primitives": [
        {
          "attributes": {
            "NORMAL": 5,
            "POSITION": 4,
            "TEXCOORD_0": 6
          },
          "indices": 7,
          "material": 1,
          "mode": 4
        }
      ]
    },
    {
      "name": "Object_2",
      "primitives": [
        {
          "attributes": {
            "NORMAL": 9,
            "POSITION": 8,
            "TEXCOORD_0": 10
          },
          "indices": 11,
          "material": 2,
          "mode": 4
        }
      ]
    }
  ],
  "nodes": [
    {
      "children": [
        1
      ],
      "matrix": [
        1.0,
        0.0,
        0.0,
        0.0,
        0.0,
        2.220446049250313e-16,
        -1.0,
        0.0,
        0.0,
        1.0,
        2.220446049250313e-16,
        0.0,
        0.0,
        0.0,
        0.0,
        1.0
      ],
      "name": "Sketchfab_model"
    },
    {
      "children": [
        2
      ],
      "name": "root"
    },
    {
      "children": [
        3
      ],
      "matrix": [
        1.0,
        0.0,
        0.0,
        0.0,
        0.0,
        2.220446049250313e-16,
        1.0,
        0.0,
        0.0,
        -1.0,
        2.220446049250313e-16,
        0.0,
        0.0,
        0.0,
        0.0,
        1.0
      ],
      "name": "GLTF_SceneRootNode"
    },
    {
      "children": [
        4,
        5,
        6
      ],
      "name": "Cube_2"
    },
    {
      "mesh": 0,
      "name": "Object_4"
    },
    {
      "mesh": 1,
      "name": "Object_5"
    },
    {
      "mesh": 2,
      "name": "Object_6"
    }
  ],
  "scene": 0,
  "scenes": [
    {
      "name": "Sketchfab_Scene",
      "nodes": [
        0
      ]
    }
  ]
}
